<svg width="882" height="115" viewBox="0 0 882 115" fill="none" xmlns="http://www.w3.org/2000/svg">
<path d="M361.868 115V98.5714H389.243V16.4286H361.868V0H443.994V16.4286H416.619V98.5714H443.994V115H361.868Z" fill="#FFDA85"/>
<path d="M457.682 115V0H566.328L567.183 21.5625H485.913L485.057 44.1518H566.328V65.7143H485.057V91.3839H566.328V115H457.682Z" fill="#FFDA85"/>
<path d="M580.871 115V0H608.246V91.3839H679.251V115H580.871Z" fill="#FFDA85"/>
<path d="M690.372 115V0H717.748V91.3839H774.21V115H690.372Z" fill="#FFDA85"/>
<path d="M786.186 115V0H882V16.4286H813.562V49.2857H868.312V65.7143H813.562V98.5714H882V115H786.186Z" fill="#FFDA85"/>
<path fill-rule="evenodd" clip-rule="evenodd" d="M238.679 115V0H347.325V65.7143H331.071V82.1429L347.325 98.5714V115H279.742V82.1429H266.054V115H238.679ZM293.43 65.7143H266.054V16.4286H331.071V49.2857H293.43V65.7143Z" fill="#FFDA85"/>
<path d="M129.178 115V0H156.553V87.2768H197.616V0H224.991V115H129.178Z" fill="#FFDA85"/>
<path fill-rule="evenodd" clip-rule="evenodd" d="M115.49 115H88.1144V82.1429H27.3754V115H0V0H115.49V115ZM88.1144 65.7143H27.3754V16.4286H88.1144V65.7143Z" fill="#FFDA85"/>
</svg>
