<svg width="652" height="85" viewBox="0 0 652 85" fill="none" xmlns="http://www.w3.org/2000/svg">
<path d="M267.503 85V72.8571H287.74V12.1429H267.503V0H328.213V12.1429H307.977V72.8571H328.213V85H267.503Z" fill="#191919"/>
<path d="M338.332 85V0H418.646L419.278 15.9375H359.201L358.568 32.6339H418.646V48.5714H358.568V67.5446H418.646V85H338.332Z" fill="#191919"/>
<path d="M429.397 85V0H449.633V67.5446H502.122V85H429.397Z" fill="#191919"/>
<path d="M510.343 85V0H530.58V67.5446H572.318V85H510.343Z" fill="#191919"/>
<path d="M581.172 85V0H652V12.1429H601.408V36.4286H641.882V48.5714H601.408V72.8571H652V85H581.172Z" fill="#191919"/>
<path fill-rule="evenodd" clip-rule="evenodd" d="M176.438 85V0H256.753V48.5714H244.737V60.7143L256.753 72.8571V85H206.793V60.7143H196.675V85H176.438ZM216.912 48.5714H196.675V12.1429H244.737V36.4286H216.912V48.5714Z" fill="#191919"/>
<path d="M95.4918 85V0H115.728V64.5089H146.083V0H166.32V85H95.4918Z" fill="#191919"/>
<path fill-rule="evenodd" clip-rule="evenodd" d="M85.3734 85H65.1368V60.7143H20.2367V85H0V0H85.3734V85ZM65.1368 48.5714H20.2367V12.1429H65.1368V48.5714Z" fill="#191919"/>
</svg>
