<svg width="423" height="422" viewBox="0 0 423 422" fill="none" xmlns="http://www.w3.org/2000/svg">
<g filter="url(#filter0_d_102_60)">
<path d="M148.911 42.3421C161.041 22.8333 189.434 22.8334 201.564 42.3421L227.213 83.5952C231.481 90.4592 238.26 95.385 246.107 97.3227L293.267 108.969C315.569 114.476 324.343 141.48 309.538 159.044L278.23 196.186C273.02 202.366 270.431 210.336 271.013 218.398L274.51 266.848C276.164 289.761 253.193 306.45 231.913 297.797L186.915 279.498C179.427 276.454 171.047 276.454 163.56 279.498L118.561 297.797C97.2813 306.45 74.3106 289.761 75.9645 266.848L79.4618 218.398C80.0438 210.336 77.4541 202.366 72.2449 196.186L40.9369 159.044C26.1312 141.48 34.9052 114.476 57.2074 108.969L104.368 97.3227C112.214 95.385 118.994 90.4592 123.262 83.5952L148.911 42.3421Z" fill="#FFC847"/>
<path d="M200.29 43.1341L225.939 84.3873C230.413 91.5834 237.521 96.7475 245.747 98.779L292.908 110.425C314.131 115.666 322.48 141.363 308.391 158.078L277.083 195.219C271.622 201.698 268.907 210.054 269.517 218.506L273.014 266.956C274.588 288.76 252.729 304.642 232.478 296.407L187.48 278.109C179.63 274.917 170.844 274.917 162.995 278.109L117.996 296.407C97.746 304.642 75.8868 288.76 77.4606 266.956L80.958 218.506C81.568 210.054 78.8531 201.698 73.3918 195.219L42.0838 158.077C27.9945 141.363 36.344 115.666 57.567 110.425L104.727 98.779C112.954 96.7475 120.061 91.5834 124.536 84.3872L150.185 43.1341C161.728 24.5693 188.747 24.5694 200.29 43.1341Z" stroke="#FFEDC2" stroke-width="3"/>
</g>
<path fill-rule="evenodd" clip-rule="evenodd" d="M194.511 147.153H227.579V137.683H194.511V147.153ZM210.811 166.171C203.435 166.171 197.832 170.741 197.293 179.185H223.758C221.964 169.164 217.512 166.171 210.811 166.171ZM211.845 205.338C218.656 205.338 223.654 201.035 224.674 197.41H238.998C234.904 210.52 226.448 217.882 211.266 217.882C191.892 217.882 181.019 204.103 181.019 185.818C181.019 142.758 243.151 141.214 240.032 189.839H197.293C197.709 199.713 201.784 205.338 211.845 205.338ZM147.386 203.443C155.204 203.443 160.676 200.436 160.676 192.32C160.676 183.903 155.841 180.252 147.724 180.252H128.135V203.443H147.386ZM146.352 167.593C152.858 167.593 157.349 164.565 157.349 157.53C157.349 150.119 152.124 147.832 144.981 147.832H128.135V167.593H146.352ZM148.646 133.393C164.056 133.393 174.767 138.486 174.767 154.334C174.767 162.181 171.615 168.029 163.653 171.969C173.844 174.996 178.666 182.945 178.666 193.39C178.666 209.97 165.518 217.882 149.79 217.882H110.145V133.393H148.646Z" fill="#212427"/>
<defs>
<filter id="filter0_d_102_60" x="33.6173" y="27.7104" width="296.24" height="285.408" filterUnits="userSpaceOnUse" color-interpolation-filters="sRGB">
<feFlood flood-opacity="0" result="BackgroundImageFix"/>
<feColorMatrix in="SourceAlpha" type="matrix" values="0 0 0 0 0 0 0 0 0 0 0 0 0 0 0 0 0 0 127 0" result="hardAlpha"/>
<feOffset dx="13" dy="13"/>
<feComposite in2="hardAlpha" operator="out"/>
<feColorMatrix type="matrix" values="0 0 0 0 1 0 0 0 0 0.929412 0 0 0 0 0.760784 0 0 0 1 0"/>
<feBlend mode="normal" in2="BackgroundImageFix" result="effect1_dropShadow_102_60"/>
<feBlend mode="normal" in="SourceGraphic" in2="effect1_dropShadow_102_60" result="shape"/>
</filter>
</defs>
</svg>
