<svg width="219" height="219" viewBox="0 0 219 219" fill="none" xmlns="http://www.w3.org/2000/svg">
<g filter="url(#filter0_d_114_23)">
<path d="M96.5423 19.2092C102.466 10.178 115.705 10.178 121.628 19.2092L134.405 38.6897C137.449 43.3316 142.809 45.9126 148.336 45.3987L171.533 43.2421C182.287 42.2423 190.541 52.593 187.174 62.8549L179.909 84.9901C178.178 90.2647 179.502 96.064 183.35 100.065L199.499 116.856C206.986 124.641 204.04 137.548 193.917 141.313L172.082 149.435C166.879 151.37 163.17 156.021 162.441 161.524L159.382 184.619C157.963 195.326 146.036 201.07 136.78 195.503L116.817 183.496C112.059 180.634 106.111 180.634 101.354 183.496L81.3901 195.503C72.1348 201.07 60.2069 195.326 58.7886 184.619L55.7294 161.524C55.0004 156.021 51.2916 151.37 46.0886 149.435L24.2534 141.313C14.1306 137.548 11.1846 124.641 18.6713 116.856L34.8202 100.065C38.6684 96.064 39.992 90.2647 38.261 84.9901L30.9968 62.8549C27.6291 52.593 35.8834 42.2423 46.6375 43.2421L69.8341 45.3987C75.3616 45.9126 80.721 43.3317 83.7655 38.6897L96.5423 19.2092Z" fill="#E11444"/>
<path d="M120.374 20.0319L133.151 39.5123C136.5 44.6185 142.395 47.4575 148.475 46.8923L171.672 44.7357C181.35 43.8359 188.779 53.1515 185.748 62.3872L178.484 84.5224C176.58 90.3244 178.036 96.7036 182.269 101.105L198.418 117.896C205.156 124.902 202.505 136.519 193.394 139.907L171.559 148.029C165.836 150.158 161.756 155.273 160.954 161.327L157.895 184.422C156.618 194.058 145.883 199.228 137.553 194.218L117.59 182.21C112.357 179.063 105.814 179.063 100.581 182.21L80.617 194.218C72.2872 199.228 61.5521 194.058 60.2757 184.422L57.2164 161.327C56.4145 155.273 52.3349 150.158 46.6115 148.029L24.7763 139.907C15.6658 136.519 13.0144 124.902 19.7524 117.896L35.9014 101.105C40.1343 96.7036 41.5903 90.3244 39.6862 84.5224L32.422 62.3872C29.3911 53.1515 36.82 43.8359 46.4986 44.7357L69.6953 46.8923C75.7755 47.4575 81.6708 44.6185 85.0198 39.5123L97.7966 20.0319C103.128 11.9038 115.043 11.9038 120.374 20.0319Z" stroke="#212427" stroke-width="3"/>
</g>
<path d="M65.1657 111.461C60.2656 111.461 56.5437 110.323 54 108.047C51.483 105.771 50.2245 102.491 50.2245 98.2067C50.2245 93.8154 51.4696 90.4817 53.9598 88.2057C56.45 85.9297 60.1585 84.7917 65.0854 84.7917C66.7455 84.7917 68.2048 84.9122 69.4633 85.1532C70.7218 85.3942 71.9402 85.7423 73.1183 86.1975V93.7083C71.8866 93.1728 70.6683 92.7711 69.4633 92.5034C68.2852 92.2356 67.0267 92.1017 65.6879 92.1017C63.519 92.1017 61.8588 92.5703 60.7075 93.5075C59.5828 94.4179 59.0205 95.9843 59.0205 98.2067C59.0205 100.376 59.6096 101.915 60.7878 102.826C61.9927 103.709 63.6529 104.151 65.7682 104.151C67.0802 104.151 68.3387 104.031 69.5437 103.79C70.7486 103.522 71.9669 103.12 73.1986 102.585V110.136C72.0205 110.564 70.7888 110.885 69.5035 111.1C68.245 111.341 66.7991 111.461 65.1657 111.461Z" fill="white"/>
<path d="M77.629 111.059V85.1934H86.2644V104.472H97.3498V111.059H77.629Z" fill="white"/>
<path d="M100.975 111.059V85.1934H109.61V111.059H100.975Z" fill="white"/>
<path d="M128.966 111.461C124.066 111.461 120.344 110.323 117.801 108.047C115.284 105.771 114.025 102.491 114.025 98.2067C114.025 93.8154 115.27 90.4817 117.76 88.2057C120.251 85.9297 123.959 84.7917 128.886 84.7917C130.546 84.7917 132.005 84.9122 133.264 85.1532C134.522 85.3942 135.741 85.7423 136.919 86.1975V93.7083C135.687 93.1728 134.469 92.7711 133.264 92.5034C132.086 92.2356 130.827 92.1017 129.488 92.1017C127.32 92.1017 125.659 92.5703 124.508 93.5075C123.383 94.4179 122.821 95.9843 122.821 98.2067C122.821 100.376 123.41 101.915 124.588 102.826C125.793 103.709 127.453 104.151 129.569 104.151C130.881 104.151 132.139 104.031 133.344 103.79C134.549 103.522 135.767 103.12 136.999 102.585V110.136C135.821 110.564 134.589 110.885 133.304 111.1C132.046 111.341 130.6 111.461 128.966 111.461Z" fill="white"/>
<path d="M141.43 111.059V85.1934H150.065V93.387L156.813 85.1934H166.573L157.616 95.8772L167.296 111.059H158.138L152.314 101.34L150.065 103.95V111.059H141.43Z" fill="white"/>
<path d="M86.0744 140.949V115.083H94.3483L100.212 127.012L105.996 115.083H114.27V140.949H105.635V129.944L102.421 136.531H97.9229L94.7098 129.944V140.949H86.0744Z" fill="white"/>
<path d="M120.304 140.949V115.083H140.426V121.47H128.939V124.763H138.94V131.31H128.939V134.563H140.426V140.949H120.304Z" fill="white"/>
<defs>
<filter id="filter0_d_114_23" x="14.4772" y="12.4358" width="204.216" height="200.228" filterUnits="userSpaceOnUse" color-interpolation-filters="sRGB">
<feFlood flood-opacity="0" result="BackgroundImageFix"/>
<feColorMatrix in="SourceAlpha" type="matrix" values="0 0 0 0 0 0 0 0 0 0 0 0 0 0 0 0 0 0 127 0" result="hardAlpha"/>
<feOffset dx="15" dy="15"/>
<feComposite in2="hardAlpha" operator="out"/>
<feColorMatrix type="matrix" values="0 0 0 0 0.129412 0 0 0 0 0.141176 0 0 0 0 0.152941 0 0 0 1 0"/>
<feBlend mode="normal" in2="BackgroundImageFix" result="effect1_dropShadow_114_23"/>
<feBlend mode="normal" in="SourceGraphic" in2="effect1_dropShadow_114_23" result="shape"/>
</filter>
</defs>
</svg>
