<svg width="321" height="320" viewBox="0 0 321 320" fill="none" xmlns="http://www.w3.org/2000/svg">
<g filter="url(#filter0_d_102_67)">
<circle cx="150.303" cy="150.169" r="150" fill="#EF476F"/>
<circle cx="150.303" cy="150.169" r="148.5" stroke="#FFF3D6" stroke-width="3"/>
</g>
<path d="M209.143 72.5875C208.249 70.4315 206.525 68.7819 204.404 68.0551L204.389 68.0499L204.374 68.0447L204.343 68.0343L204.278 68.0129L204.138 67.9691C204.041 67.9395 203.936 67.9093 203.822 67.8789C203.595 67.8181 203.335 67.757 203.042 67.7003C202.456 67.5868 201.744 67.4918 200.904 67.45C199.217 67.366 197.057 67.4977 194.405 68.0903C189.983 69.0784 184.242 71.3358 177.035 75.9613C176.564 76.2636 176.086 76.576 175.603 76.8988C175.118 76.779 174.634 76.6632 174.149 76.5516C161.006 73.5279 147.403 73.5279 134.26 76.5516C133.774 76.6633 133.29 76.779 132.806 76.8989C132.322 76.576 131.844 76.2636 131.373 75.9613C124.158 71.3334 118.404 69.0764 113.97 68.089C111.312 67.4972 109.148 67.3662 107.46 67.4499C106.619 67.4916 105.907 67.586 105.321 67.6987C105.029 67.7549 104.77 67.8155 104.543 67.8756C104.43 67.9056 104.325 67.9356 104.229 67.9648L104.09 68.0081L104.026 68.0291L103.995 68.0395L103.979 68.0446L103.964 68.0497C101.825 68.7773 100.088 70.443 99.1959 72.6202C95.8744 80.7302 94.9927 89.6732 96.5924 98.252C96.6701 98.6688 96.7537 99.0848 96.8432 99.4998C96.5002 99.9869 96.167 100.481 95.8436 100.981C90.8554 108.693 88.2022 117.892 88.3265 127.338C88.3385 147.568 94.2478 161.423 104.242 170.339C109.899 175.385 116.465 178.474 123.064 180.421C123.819 180.644 124.574 180.852 125.329 181.046C125.219 181.429 125.116 181.815 125.021 182.204C124.621 183.838 124.356 185.515 124.234 187.218C124.223 187.372 124.216 187.526 124.213 187.68L123.933 202.658L123.932 202.82C123.932 202.867 123.932 202.914 123.932 202.96C123.425 203.086 122.91 203.179 122.389 203.239C120.785 203.425 119.16 203.29 117.607 202.842C116.054 202.395 114.602 201.644 113.336 200.631C112.07 199.618 111.014 198.362 110.23 196.935L110.149 196.792C107.99 193.043 105.008 189.835 101.427 187.41C97.8459 184.985 93.7599 183.409 89.4781 182.802C84.9749 182.164 80.8069 185.296 80.1686 189.8C79.5303 194.303 82.6634 198.471 87.1666 199.109C88.965 199.365 90.6839 200.027 92.1929 201.049C93.6842 202.058 94.9323 203.393 95.8434 204.956C97.665 208.243 100.111 211.144 103.046 213.491C106.007 215.861 109.406 217.621 113.049 218.67C116.597 219.691 120.306 220.019 123.976 219.635C123.983 221.61 123.988 223.127 123.988 223.897C123.988 228.445 127.482 232.132 131.791 232.132H176.898C181.207 232.132 184.7 228.445 184.7 223.897V192.681C184.912 189.146 184.55 185.602 183.634 182.204C183.508 181.736 183.372 181.271 183.225 180.809C183.717 180.686 184.208 180.557 184.7 180.421C191.49 178.551 198.272 175.493 204.099 170.354C214.148 161.487 220.07 147.621 220.082 127.338C220.206 117.892 217.553 108.693 212.565 100.981C212.241 100.48 211.908 99.9854 211.563 99.4974C211.652 99.0832 211.735 98.668 211.813 98.252C213.409 89.6567 212.505 80.6974 209.143 72.5875Z" fill="#212427"/>
<defs>
<filter id="filter0_d_102_67" x="0.302612" y="0.169189" width="313" height="313" filterUnits="userSpaceOnUse" color-interpolation-filters="sRGB">
<feFlood flood-opacity="0" result="BackgroundImageFix"/>
<feColorMatrix in="SourceAlpha" type="matrix" values="0 0 0 0 0 0 0 0 0 0 0 0 0 0 0 0 0 0 127 0" result="hardAlpha"/>
<feOffset dx="13" dy="13"/>
<feComposite in2="hardAlpha" operator="out"/>
<feColorMatrix type="matrix" values="0 0 0 0 1 0 0 0 0 0.952941 0 0 0 0 0.839216 0 0 0 1 0"/>
<feBlend mode="normal" in2="BackgroundImageFix" result="effect1_dropShadow_102_67"/>
<feBlend mode="normal" in="SourceGraphic" in2="effect1_dropShadow_102_67" result="shape"/>
</filter>
</defs>
</svg>
