<svg width="273" height="174" viewBox="0 0 273 174" fill="none" xmlns="http://www.w3.org/2000/svg">
<rect x="16" y="16" width="257" height="158" rx="10" fill="#212427"/>
<rect x="1.5" y="1.5" width="260" height="161" rx="11.5" fill="#FFF3D6" stroke="#212427" stroke-width="3"/>
<path d="M13 3C7.47715 3 3 7.47715 3 13V44.9592H260V13C260 7.47715 255.523 3 250 3H13Z" fill="#8F88D3"/>
<path d="M75.6039 28.9999V29.4999H76.1039H79.3289H79.8289V28.9999V26.1249H81.6939V28.9999V29.4999H82.1939H85.4189H85.9189V28.9999V19.3399V18.8399H85.4189H82.1939H81.6939V19.3399V22.2149H79.8289V19.3399V18.8399H79.3289H76.1039H75.6039V19.3399V28.9999ZM86.8715 28.9999V29.4999H87.3715H94.8865H95.3865V28.9999V26.6149V26.1149H94.8865H91.0965V25.8999H94.3315H94.8315V25.3999V22.9549V22.4549H94.3315H91.0965V22.2249H94.8865H95.3865V21.7249V19.3399V18.8399H94.8865H87.3715H86.8715V19.3399V28.9999ZM95.9565 28.9999V29.4999H96.4565H103.821H104.321V28.9999V26.5399V26.0399H103.821H100.181V19.3399V18.8399H99.6815H96.4565H95.9565V19.3399V28.9999ZM104.675 28.9999V29.4999H105.175H112.54H113.04V28.9999V26.5399V26.0399H112.54H108.9V19.3399V18.8399H108.4H105.175H104.675V19.3399V28.9999ZM113.591 27.3006L113.594 27.3052C114.046 28.1302 114.704 28.7375 115.556 29.1126C116.386 29.4779 117.374 29.6499 118.502 29.6499C119.631 29.6499 120.619 29.4779 121.449 29.1126C122.302 28.7374 122.955 28.1294 123.397 27.3029C123.85 26.4747 124.057 25.4239 124.057 24.1849C124.057 22.9277 123.851 21.8662 123.397 21.037C122.955 20.2105 122.302 19.6025 121.449 19.2273C120.619 18.862 119.631 18.6899 118.502 18.6899C117.374 18.6899 116.386 18.862 115.556 19.2273C114.704 19.6024 114.046 20.2097 113.594 21.0347L113.591 21.0393C113.149 21.8676 112.947 22.928 112.947 24.1849C112.947 25.4235 113.149 26.4733 113.591 27.3006ZM119.447 25.5826L119.447 25.5825L119.442 25.5895C119.3 25.7726 119.034 25.9199 118.502 25.9199C117.963 25.9199 117.682 25.773 117.531 25.586C117.365 25.3683 117.232 24.9373 117.232 24.1849C117.232 23.3775 117.37 22.9505 117.524 22.762C117.674 22.5809 117.956 22.4349 118.502 22.4349C119.038 22.4349 119.306 22.5802 119.446 22.7559L119.451 22.7622L119.456 22.7684C119.615 22.9557 119.757 23.3792 119.757 24.1849C119.757 24.9389 119.619 25.3671 119.447 25.5826ZM124.556 26.1458L124.558 26.2499H124.405V26.7499V28.9999V29.4999H124.905H128.25H128.75V28.9999V26.7499V26.2499H128.583L128.585 26.1476L128.69 22.0076L128.69 22.0076V21.9949V19.3399V18.8399H128.19H124.965H124.465V19.3399V21.9949H124.465L124.466 22.0058L124.556 26.1458ZM133.222 28.9999V29.4999H133.722H136.947H137.447V28.9999V19.3399V18.8399H136.947H133.722H133.222V19.3399V28.9999ZM138.113 22.6902L137.944 23.3199H138.596H141.011H141.369L141.484 22.9804L142.714 19.3504L142.938 18.6899H142.241H139.571H139.187L139.088 19.0602L138.113 22.6902ZM143.394 28.9999V29.4999H143.894H147.119H147.619V28.9999V27.0554L147.87 27.5692L148.007 27.8499H148.319H149.999H150.311L150.448 27.5692L150.699 27.0554V28.9999V29.4999H151.199H154.424H154.924V28.9999V19.3399V18.8399H154.424H151.334H151.021L150.884 19.1218L149.171 22.6553L147.433 19.1194L147.295 18.8399H146.984H143.894H143.394V19.3399V28.9999ZM159.437 28.8209L159.176 29.4999H159.904H163.264H163.607L163.73 29.1787L164.342 27.5799H166.252L166.878 29.1819L167.002 29.4999H167.344H170.704H171.432L171.17 28.8203L167.45 19.1603L167.327 18.8399H166.984H163.609H163.265L163.142 19.1609L159.437 28.8209ZM165.117 24.3299L165.292 23.8728L165.471 24.3299H165.117Z" fill="#FFF3D6" stroke="#212427"/>
</svg>
