<svg width="389" height="388" viewBox="0 0 389 388" fill="none" xmlns="http://www.w3.org/2000/svg">
<g filter="url(#filter0_d_102_49)">
<path d="M152.29 48.4182C165.046 26.7097 196.436 26.7097 209.193 48.4182L217.17 61.9937C223.952 73.5361 237.036 79.8369 250.289 77.9432L265.877 75.7158C290.803 72.1541 310.374 96.6961 301.355 120.204L295.715 134.905C290.92 147.405 294.151 161.563 303.895 170.744L315.355 181.542C333.681 198.809 326.696 229.412 302.693 237.018L287.683 241.774C274.92 245.818 265.866 257.172 264.763 270.514L263.466 286.206C261.392 311.3 233.11 324.92 212.198 310.896L199.121 302.126C188.002 294.669 173.48 294.669 162.361 302.126L149.284 310.896C128.372 324.92 100.09 311.3 98.0161 286.206L96.719 270.514C95.6162 257.172 86.5619 245.818 73.7996 241.774L58.7894 237.018C34.7867 229.412 27.8017 198.809 46.1273 181.542L57.5873 170.744C67.3311 161.563 70.5625 147.405 65.7672 134.905L60.1272 120.204C51.1083 96.6961 70.6798 72.1541 95.6056 75.7158L111.193 77.9431C124.446 79.8369 137.53 73.536 144.312 61.9936L152.29 48.4182Z" fill="#BAB5E3"/>
<path d="M207.899 49.1781L215.877 62.7536C222.967 74.8207 236.646 81.4079 250.502 79.4281L266.089 77.2007C289.882 73.8009 308.564 97.2273 299.955 119.667L294.315 134.368C289.301 147.436 292.68 162.237 302.866 171.835L314.326 182.633C331.819 199.116 325.151 228.328 302.24 235.588L287.23 240.344C273.887 244.572 264.421 256.442 263.268 270.391L261.971 286.083C259.992 310.036 232.995 323.036 213.034 309.65L199.957 300.88C188.332 293.085 173.15 293.085 161.526 300.88L148.448 309.65C128.487 323.036 101.491 310.036 99.511 286.083L98.2139 270.391C97.061 256.442 87.5951 244.572 74.2527 240.344L59.2425 235.588C36.3308 228.328 29.6633 199.115 47.156 182.633L58.616 171.835C68.8026 162.237 72.181 147.436 67.1676 134.368L61.5277 119.667C52.9187 97.2274 71.6006 73.8009 95.3934 77.2007L110.981 79.4281C124.836 81.4079 138.515 74.8206 145.606 62.7536L153.583 49.1781C165.759 28.4564 195.723 28.4564 207.899 49.1781Z" stroke="#FFEDC2" stroke-width="3"/>
</g>
<g clip-path="url(#clip0_102_49)">
<rect x="89.7412" y="89" width="181" height="181" fill="#212427"/>
<path fill-rule="evenodd" clip-rule="evenodd" d="M223.542 131.312H209.289C206.51 131.332 204.378 133.363 204.358 136.127C204.338 140.962 204.338 145.777 204.358 150.612C204.378 153.356 206.51 155.412 209.254 155.412H223.502C226.362 155.412 228.453 153.335 228.453 150.476C228.473 145.736 228.473 140.982 228.453 136.247C228.453 133.404 226.362 131.332 223.542 131.312Z" fill="#BAB5E3"/>
<path fill-rule="evenodd" clip-rule="evenodd" d="M180.277 203.608C193.601 203.588 204.358 192.811 204.358 179.487C204.338 166.164 193.561 155.412 180.237 155.412C166.959 155.412 156.182 166.204 156.162 179.467C156.141 192.811 166.939 203.608 180.277 203.608Z" fill="#BAB5E3"/>
<path fill-rule="evenodd" clip-rule="evenodd" d="M216.337 193.104C213.457 200.703 208.642 206.802 201.948 211.384C189.872 219.63 174.083 220.322 161.391 213.157C154.974 209.525 149.942 204.492 146.431 197.999C141.616 189.117 140.509 179.725 142.939 169.918H132.061V222.631C132.061 225.652 134.118 227.703 137.134 227.703C139.069 227.724 140.984 227.703 142.919 227.703H223.224C226.482 227.703 228.453 225.713 228.453 222.453V169.897H217.56C219.556 177.789 219.197 185.525 216.337 193.104Z" fill="#BAB5E3"/>
<path fill-rule="evenodd" clip-rule="evenodd" d="M89.7412 89V270H270.741V89H89.7412ZM242.883 131.135V227.901C242.883 235.025 237.376 241.224 230.292 242.053C229.736 242.113 229.186 242.154 228.635 242.154H131.864C124.862 242.154 118.702 236.763 117.773 229.835C117.657 229.027 117.596 228.199 117.596 227.39V131.549C117.596 124.324 122.431 118.443 129.535 117.084C130.384 116.922 131.273 116.866 132.142 116.866C164.231 116.846 196.304 116.846 228.377 116.846C235.896 116.846 242.075 122.429 242.842 129.892C242.903 130.306 242.883 130.72 242.883 131.135Z" fill="#BAB5E3"/>
</g>
<defs>
<filter id="filter0_d_102_49" x="35.7428" y="32.1367" width="302.997" height="297.394" filterUnits="userSpaceOnUse" color-interpolation-filters="sRGB">
<feFlood flood-opacity="0" result="BackgroundImageFix"/>
<feColorMatrix in="SourceAlpha" type="matrix" values="0 0 0 0 0 0 0 0 0 0 0 0 0 0 0 0 0 0 127 0" result="hardAlpha"/>
<feOffset dx="13" dy="13"/>
<feComposite in2="hardAlpha" operator="out"/>
<feColorMatrix type="matrix" values="0 0 0 0 1 0 0 0 0 0.929412 0 0 0 0 0.760784 0 0 0 1 0"/>
<feBlend mode="normal" in2="BackgroundImageFix" result="effect1_dropShadow_102_49"/>
<feBlend mode="normal" in="SourceGraphic" in2="effect1_dropShadow_102_49" result="shape"/>
</filter>
<clipPath id="clip0_102_49">
<rect x="89.7412" y="89" width="181" height="181" rx="25" fill="white"/>
</clipPath>
</defs>
</svg>
