<svg width="161" height="156" viewBox="0 0 161 156" fill="none" xmlns="http://www.w3.org/2000/svg">
<g filter="url(#filter0_d_50_51)">
<path d="M51.9229 14.3007C63.1332 -0.0698265 84.8668 -0.0698149 96.0771 14.3007L102.904 23.0524C106.14 27.2005 110.479 30.353 115.424 32.1487L125.857 35.9373C142.989 42.1582 149.705 62.8281 139.502 77.9304L133.288 87.1278C130.343 91.4872 128.686 96.5881 128.506 101.846L128.127 112.939C127.504 131.154 109.921 143.929 92.4052 138.892L81.7378 135.825C76.6817 134.371 71.3183 134.371 66.2622 135.825L55.5948 138.892C38.0787 143.929 20.4959 131.154 19.8733 112.939L19.4942 101.846C19.3145 96.5881 17.6571 91.4872 14.7119 87.1278L8.49824 77.9304C-1.70473 62.8281 5.01134 42.1582 22.1426 35.9373L32.5757 32.1487C37.5208 30.353 41.8599 27.2005 45.0958 23.0524L51.9229 14.3007Z" fill="#BAB5E3"/>
<path d="M104.087 22.1298L97.2598 13.3781C85.449 -1.76228 62.551 -1.76229 50.7402 13.378L43.9131 22.1298C40.8505 26.0557 36.7439 29.0393 32.0637 30.7388L21.6307 34.5274C3.5816 41.0815 -3.49425 62.8587 7.25531 78.7701L13.469 87.9675C16.2564 92.0934 17.825 96.921 17.995 101.897L18.3742 112.99C19.0301 132.181 37.5549 145.641 56.0093 140.334L66.6767 137.267C71.462 135.891 76.538 135.891 81.3233 137.267L91.9907 140.334C110.445 145.641 128.97 132.181 129.626 112.99L130.005 101.897C130.175 96.921 131.744 92.0934 134.531 87.9676L140.745 78.7701C151.494 62.8587 144.418 41.0815 126.369 34.5274L115.936 30.7388C111.256 29.0393 107.149 26.0557 104.087 22.1298Z" stroke="#212427" stroke-width="3"/>
</g>
<defs>
<filter id="filter0_d_50_51" x="0.68644" y="0.522827" width="159.627" height="155.477" filterUnits="userSpaceOnUse" color-interpolation-filters="sRGB">
<feFlood flood-opacity="0" result="BackgroundImageFix"/>
<feColorMatrix in="SourceAlpha" type="matrix" values="0 0 0 0 0 0 0 0 0 0 0 0 0 0 0 0 0 0 127 0" result="hardAlpha"/>
<feOffset dx="13" dy="13"/>
<feComposite in2="hardAlpha" operator="out"/>
<feColorMatrix type="matrix" values="0 0 0 0 0.129412 0 0 0 0 0.141176 0 0 0 0 0.152941 0 0 0 1 0"/>
<feBlend mode="normal" in2="BackgroundImageFix" result="effect1_dropShadow_50_51"/>
<feBlend mode="normal" in="SourceGraphic" in2="effect1_dropShadow_50_51" result="shape"/>
</filter>
</defs>
</svg>
