<svg width="898" height="130" viewBox="0 0 898 130" fill="none" xmlns="http://www.w3.org/2000/svg">
<path d="M376.868 130V113.571H404.243V31.4286H376.868V15H458.994V31.4286H431.619V113.571H458.994V130H376.868Z" fill="#212427"/>
<path d="M472.682 130V15H581.328L582.183 36.5625H500.913L500.057 59.1518H581.328V80.7143H500.057V106.384H581.328V130H472.682Z" fill="#212427"/>
<path d="M595.871 130V15H623.246V106.384H694.251V130H595.871Z" fill="#212427"/>
<path d="M705.372 130V15H732.748V106.384H789.21V130H705.372Z" fill="#212427"/>
<path d="M801.186 130V15H897V31.4286H828.562V64.2857H883.312V80.7143H828.562V113.571H897V130H801.186Z" fill="#212427"/>
<path fill-rule="evenodd" clip-rule="evenodd" d="M253.679 130V15H362.325V80.7143H346.071V97.1429L362.325 113.571V130H294.742V97.1429H281.054V130H253.679ZM308.43 80.7143H281.054V31.4286H346.071V64.2857H308.43V80.7143Z" fill="#212427"/>
<path d="M144.178 130V15H171.553V102.277H212.616V15H239.991V130H144.178Z" fill="#212427"/>
<path fill-rule="evenodd" clip-rule="evenodd" d="M130.49 130H103.114V97.1429H42.3754V130H15V15H130.49V130ZM103.114 80.7143H42.3754V31.4286H103.114V80.7143Z" fill="#212427"/>
<path d="M280.742 116H279.176V118H280.742H281.742H349.325H350.325V117V100.571V100.16L350.036 99.8681L334.071 83.7318V68.7143H349.325H350.325V67.7143V2V1H349.325H240.679H239.679V2V117V118H240.679H268.054H269.054V117V85.1429H280.742V116ZM1 117V118H2H29.3754H30.3754V117V85.1429H89.1144V117V118H90.1144H117.49H118.49V117V2V1H117.49H2H1V2V117ZM130.178 117V118H131.178H226.991H227.991V117V2V1H226.991H199.616H198.616V2V88.2768H159.553V2V1H158.553H131.178H130.178V2V117ZM295.43 50.2857H294.43V51.2857V66.7143H269.054V19.4286H332.071V50.2857H295.43ZM362.868 117V118H363.868H445.994H446.994V117V100.571V99.5714H445.994H419.619V19.4286H445.994H446.994V18.4286V2V1H445.994H363.868H362.868V2V18.4286V19.4286H363.868H390.243V99.5714H363.868H362.868V100.571V117ZM458.682 117V118H459.682H568.328H569.328V117V93.3839V92.3839H568.328H488.057V68.7143H568.328H569.328V67.7143V46.1518V45.1518H568.328H488.096L488.876 24.5625H569.183H570.224L570.183 23.5229L569.327 1.96036L569.289 1H568.328H459.682H458.682V2V117ZM581.871 117V118H582.871H681.251H682.251V117V93.3839V92.3839H681.251H611.246V2V1H610.246H582.871H581.871V2V117ZM691.372 117V118H692.372H776.21H777.21V117V93.3839V92.3839H776.21H720.748V2V1H719.748H692.372H691.372V2V117ZM787.186 117V118H788.186H884H885V117V100.571V99.5714H884H816.562V68.7143H870.312H871.312V67.7143V51.2857V50.2857H870.312H816.562V19.4286H884H885V18.4286V2V1H884H788.186H787.186V2V117ZM89.1144 19.4286V66.7143H30.3754V19.4286H89.1144Z" fill="#FFDA85" stroke="#212427" stroke-width="2"/>
</svg>
