<svg width="896" height="128" viewBox="0 0 896 128" fill="none" xmlns="http://www.w3.org/2000/svg">
<path d="M375.868 128V111.571H403.243V29.4286H375.868V13H457.994V29.4286H430.619V111.571H457.994V128H375.868Z" fill="#191919"/>
<path d="M471.682 128V13H580.328L581.183 34.5625H499.913L499.057 57.1518H580.328V78.7143H499.057V104.384H580.328V128H471.682Z" fill="#191919"/>
<path d="M594.871 128V13H622.246V104.384H693.251V128H594.871Z" fill="#191919"/>
<path d="M704.372 128V13H731.748V104.384H788.21V128H704.372Z" fill="#191919"/>
<path d="M800.186 128V13H896V29.4286H827.562V62.2857H882.312V78.7143H827.562V111.571H896V128H800.186Z" fill="#191919"/>
<path fill-rule="evenodd" clip-rule="evenodd" d="M252.679 128V13H361.325V78.7143H345.071V95.1429L361.325 111.571V128H293.742V95.1429H280.054V128H252.679ZM307.43 78.7143H280.054V29.4286H345.071V62.2857H307.43V78.7143Z" fill="#191919"/>
<path d="M143.178 128V13H170.553V100.277H211.616V13H238.991V128H143.178Z" fill="#191919"/>
<path fill-rule="evenodd" clip-rule="evenodd" d="M129.49 128H102.114V95.1429H41.3754V128H14V13H129.49V128ZM102.114 78.7143H41.3754V29.4286H102.114V78.7143Z" fill="#191919"/>
<path d="M361.868 115V98.5714H389.243V16.4286H361.868V0H443.994V16.4286H416.619V98.5714H443.994V115H361.868Z" fill="#FFDA85"/>
<path d="M457.682 115V0H566.328L567.183 21.5625H485.913L485.057 44.1518H566.328V65.7143H485.057V91.3839H566.328V115H457.682Z" fill="#FFDA85"/>
<path d="M580.871 115V0H608.246V91.3839H679.251V115H580.871Z" fill="#FFDA85"/>
<path d="M690.372 115V0H717.748V91.3839H774.21V115H690.372Z" fill="#FFDA85"/>
<path d="M786.186 115V0H882V16.4286H813.562V49.2857H868.312V65.7143H813.562V98.5714H882V115H786.186Z" fill="#FFDA85"/>
<path fill-rule="evenodd" clip-rule="evenodd" d="M238.679 115V0H347.325V65.7143H331.071V82.1429L347.325 98.5714V115H279.742V82.1429H266.054V115H238.679ZM293.43 65.7143H266.054V16.4286H331.071V49.2857H293.43V65.7143Z" fill="#FFDA85"/>
<path d="M129.178 115V0H156.553V87.2768H197.616V0H224.991V115H129.178Z" fill="#FFDA85"/>
<path fill-rule="evenodd" clip-rule="evenodd" d="M115.49 115H88.1144V82.1429H27.3754V115H0V0H115.49V115ZM88.1144 65.7143H27.3754V16.4286H88.1144V65.7143Z" fill="#FFDA85"/>
</svg>
