<svg width="918" height="134" viewBox="0 0 918 134" fill="none" xmlns="http://www.w3.org/2000/svg">
<g filter="url(#filter0_d_23_4)">
<path d="M363.868 117V100.571H391.243V18.4286H363.868V2H445.994V18.4286H418.619V100.571H445.994V117H363.868Z" fill="#FFDA85"/>
<path d="M459.682 117V2H568.328L569.183 23.5625H487.913L487.057 46.1518H568.328V67.7143H487.057V93.3839H568.328V117H459.682Z" fill="#FFDA85"/>
<path d="M582.871 117V2H610.246V93.3839H681.251V117H582.871Z" fill="#FFDA85"/>
<path d="M692.372 117V2H719.748V93.3839H776.21V117H692.372Z" fill="#FFDA85"/>
<path fill-rule="evenodd" clip-rule="evenodd" d="M240.679 117V2H349.325V67.7143H333.071V84.1429L349.325 100.571V117H281.742V84.1429H268.054V117H240.679ZM295.43 67.7143H268.054V18.4286H333.071V51.2857H295.43V67.7143Z" fill="#FFDA85"/>
<path d="M131.178 117V2H158.553V89.2768H199.616V2H226.991V117H131.178Z" fill="#FFDA85"/>
<path fill-rule="evenodd" clip-rule="evenodd" d="M117.49 117H90.1144V84.1429H29.3754V117H2V2H117.49V117ZM90.1144 67.7143H29.3754V18.4286H90.1144V67.7143Z" fill="#FFDA85"/>
<path d="M790.999 117V2H899.644L900.5 23.5625H819.229L818.374 46.1518H899.644V67.7143H818.374V93.3839H899.644V117H790.999Z" fill="#FFDA85"/>
<path d="M350.036 99.8681L334.071 83.7318V68.7143H349.325H350.325V67.7143V2V1H349.325H240.679H239.679V2V117V118H240.679H268.054H269.054V117V85.1429H280.742V116H279.176V118H280.742H281.742H349.325H350.325V117V100.571V100.16L350.036 99.8681ZM1 117V118H2H29.3754H30.3754V117V85.1429H89.1144V117V118H90.1144H117.49H118.49V117V2V1H117.49H2H1V2V117ZM130.178 117V118H131.178H226.991H227.991V117V2V1H226.991H199.616H198.616V2V88.2768H159.553V2V1H158.553H131.178H130.178V2V117ZM295.43 50.2857H294.43V51.2857V66.7143H269.054V19.4286H332.071V50.2857H295.43ZM362.868 117V118H363.868H445.994H446.994V117V100.571V99.5714H445.994H419.619V19.4286H445.994H446.994V18.4286V2V1H445.994H363.868H362.868V2V18.4286V19.4286H363.868H390.243V99.5714H363.868H362.868V100.571V117ZM458.682 117V118H459.682H568.328H569.328V117V93.3839V92.3839H568.328H488.057V68.7143H568.328H569.328V67.7143V46.1518V45.1518H568.328H488.096L488.876 24.5625H569.183H570.224L570.183 23.5229L569.327 1.96035L569.289 1H568.328H459.682H458.682V2V117ZM581.871 117V118H582.871H681.251H682.251V117V93.3839V92.3839H681.251H611.246V2V1H610.246H582.871H581.871V2V117ZM691.372 117V118H692.372H776.21H777.21V117V93.3839V92.3839H776.21H720.748V2V1H719.748H692.372H691.372V2V117ZM789.999 117V118H790.999H899.644H900.644V117V93.3839V92.3839H899.644H819.374V68.7143H899.644H900.644V67.7143V46.1518V45.1518H899.644H819.412L820.192 24.5625H900.5H901.54L901.499 23.5229L900.644 1.96035L900.606 1H899.644H790.999H789.999V2V117ZM89.1144 19.4286V66.7143H30.3754V19.4286H89.1144Z" stroke="#212427" stroke-width="2"/>
</g>
<defs>
<filter id="filter0_d_23_4" x="0" y="0" width="917.581" height="134" filterUnits="userSpaceOnUse" color-interpolation-filters="sRGB">
<feFlood flood-opacity="0" result="BackgroundImageFix"/>
<feColorMatrix in="SourceAlpha" type="matrix" values="0 0 0 0 0 0 0 0 0 0 0 0 0 0 0 0 0 0 127 0" result="hardAlpha"/>
<feOffset dx="15" dy="15"/>
<feComposite in2="hardAlpha" operator="out"/>
<feColorMatrix type="matrix" values="0 0 0 0 0.129412 0 0 0 0 0.141176 0 0 0 0 0.152941 0 0 0 1 0"/>
<feBlend mode="normal" in2="BackgroundImageFix" result="effect1_dropShadow_23_4"/>
<feBlend mode="normal" in="SourceGraphic" in2="effect1_dropShadow_23_4" result="shape"/>
</filter>
</defs>
</svg>
