<svg width="899" height="131" viewBox="0 0 899 131" fill="none" xmlns="http://www.w3.org/2000/svg">
<path d="M377.868 131V114.571H405.243V32.4286H377.868V16H459.994V32.4286H432.619V114.571H459.994V131H377.868Z" fill="#212427"/>
<path d="M473.682 131V16H582.328L583.183 37.5625H501.913L501.057 60.1518H582.328V81.7143H501.057V107.384H582.328V131H473.682Z" fill="#212427"/>
<path d="M596.871 131V16H624.246V107.384H695.251V131H596.871Z" fill="#212427"/>
<path d="M706.372 131V16H733.748V107.384H790.21V131H706.372Z" fill="#212427"/>
<path d="M802.186 131V16H898V32.4286H829.562V65.2857H884.312V81.7143H829.562V114.571H898V131H802.186Z" fill="#212427"/>
<path fill-rule="evenodd" clip-rule="evenodd" d="M254.679 131V16H363.325V81.7143H347.071V98.1429L363.325 114.571V131H295.742V98.1429H282.054V131H254.679ZM309.43 81.7143H282.054V32.4286H347.071V65.2857H309.43V81.7143Z" fill="#212427"/>
<path d="M145.178 131V16H172.553V103.277H213.616V16H240.991V131H145.178Z" fill="#212427"/>
<path fill-rule="evenodd" clip-rule="evenodd" d="M131.49 131H104.114V98.1429H43.3754V131H16V16H131.49V131ZM104.114 81.7143H43.3754V32.4286H104.114V81.7143Z" fill="#212427"/>
<path d="M363.368 118V119.5H364.868H446.994H448.494V118V101.571V100.071H446.994H421.119V20.9286H446.994H448.494V19.4286V3V1.5H446.994H364.868H363.368V3V19.4286V20.9286H364.868H390.743V100.071H364.868H363.368V101.571V118ZM459.182 118V119.5H460.682H569.328H570.828V118V94.3839V92.8839H569.328H489.557V70.2143H569.328H570.828V68.7143V47.1518V45.6518H569.328H489.615L490.357 26.0625H570.183H571.744L571.682 24.503L570.827 2.94053L570.769 1.5H569.328H460.682H459.182V3V118ZM582.371 118V119.5H583.871H682.251H683.751V118V94.3839V92.8839H682.251H612.746V3V1.5H611.246H583.871H582.371V3V118ZM691.872 118V119.5H693.372H777.21H778.71V118V94.3839V92.8839H777.21H722.248V3V1.5H720.748H693.372H691.872V3V118ZM787.686 118V119.5H789.186H885H886.5V118V101.571V100.071H885H818.062V70.2143H871.312H872.812V68.7143V52.2857V50.7857H871.312H818.062V20.9286H885H886.5V19.4286V3V1.5H885H789.186H787.686V3V118ZM240.179 118V119.5H241.679H269.054H270.554V118V86.6429H281.242V118V119.5H282.742H350.325H351.825V118V101.571V100.955L351.391 100.516L335.571 84.5262V70.2143H350.325H351.825V68.7143V3V1.5H350.325H241.679H240.179V3V118ZM294.93 52.2857V67.2143H270.554V20.9286H332.571V50.7857H296.43H294.93V52.2857ZM130.678 118V119.5H132.178H227.991H229.491V118V3V1.5H227.991H200.616H199.116V3V88.7768H161.053V3V1.5H159.553H132.178H130.678V3V118ZM118.49 119.5H119.99V118V3V1.5H118.49H3H1.5V3V118V119.5H3H30.3754H31.8754V118V86.6429H89.6144V118V119.5H91.1144H118.49ZM89.6144 67.2143H31.8754V20.9286H89.6144V67.2143Z" fill="#FFDA85" stroke="#212427" stroke-width="3"/>
</svg>
