<svg width="278" height="278" viewBox="0 0 278 278" fill="none" xmlns="http://www.w3.org/2000/svg">
<path fill-rule="evenodd" clip-rule="evenodd" d="M0 0H278V278H0V0ZM268 139C268 210.245 210.245 268 139 268C67.7553 268 10 210.245 10 139C10 67.7553 67.7553 10 139 10C210.245 10 268 67.7553 268 139ZM157.272 94.8887L139 14L120.728 94.8887L50.6116 50.6116L94.8887 120.728L14 139L94.8887 157.272L50.6116 227.388L120.728 183.111L139 264L157.272 183.111L227.388 227.388L183.111 157.272L264 139L183.111 120.728L227.388 50.6116L157.272 94.8887Z" fill="#FFD166"/>
</svg>
