<svg width="173" height="167" viewBox="0 0 173 167" fill="none" xmlns="http://www.w3.org/2000/svg">
<path d="M78.0011 21.606C85.1212 10.8748 100.879 10.8748 107.999 21.606L122.931 44.1112C125.323 47.716 128.933 50.3388 133.1 51.4996L159.118 58.7463C171.524 62.2017 176.394 77.1881 168.388 87.2758L151.598 108.431C148.909 111.82 147.53 116.064 147.714 120.386L148.862 147.37C149.409 160.237 136.661 169.499 124.593 165.002L99.2849 155.572C95.2311 154.061 90.7689 154.061 86.7151 155.572L61.4066 165.002C49.3387 169.499 36.5905 160.237 37.1379 147.37L38.2859 120.386C38.4698 116.064 37.0909 111.82 34.4016 108.431L17.6122 87.2758C9.6064 77.1881 14.4758 62.2017 26.882 58.7463L52.8999 51.4996C57.0674 50.3388 60.6774 47.716 63.0691 44.1112L78.0011 21.606Z" fill="#212427"/>
<path d="M93.7489 9.43532L108.681 31.9405C111.272 35.8457 115.183 38.6871 119.698 39.9446L145.716 47.1913C157.088 50.3588 161.551 64.0963 154.213 73.3433L137.423 94.499C134.51 98.17 133.016 102.767 133.215 107.45L134.363 134.434C134.865 146.228 123.179 154.719 112.117 150.597L86.8086 141.166C82.417 139.53 77.5829 139.53 73.1913 141.166L47.8829 150.597C36.8206 154.719 25.1348 146.228 25.6366 134.434L26.7846 107.45C26.9838 102.767 25.49 98.17 22.5766 94.499L5.78711 73.3433C-1.5515 64.0963 2.91209 50.3588 14.2844 47.1913L40.3024 39.9446C44.8171 38.6871 48.728 35.8457 51.319 31.9405L66.251 9.43532C72.7777 -0.401616 87.2222 -0.401617 93.7489 9.43532Z" fill="#FFD166" stroke="#212427" stroke-width="3"/>
</svg>
