<svg width="212" height="222" viewBox="0 0 212 222" fill="none" xmlns="http://www.w3.org/2000/svg">
<path d="M100.746 20.1624C106.263 11.6373 118.737 11.6373 124.254 20.1624L131.305 31.058C134.905 36.6217 141.913 38.8987 148.096 36.5139L160.205 31.8436C169.679 28.1894 179.77 35.5211 179.222 45.6608L178.522 58.62C178.165 65.2373 182.496 71.1988 188.9 72.9038L201.441 76.2427C211.254 78.8552 215.109 90.718 208.706 98.5993L200.522 108.672C196.343 113.816 196.343 121.184 200.522 126.328L208.706 136.401C215.109 144.282 211.254 156.145 201.441 158.757L188.9 162.096C182.496 163.801 178.165 169.763 178.522 176.38L179.222 189.339C179.77 199.479 169.679 206.81 160.205 203.156L148.096 198.486C141.913 196.101 134.905 198.378 131.305 203.942L124.254 214.838C118.737 223.363 106.263 223.363 100.746 214.838L93.6955 203.942C90.0951 198.378 83.0869 196.101 76.9039 198.486L64.7953 203.156C55.321 206.81 45.2299 199.479 45.7776 189.339L46.4775 176.38C46.8349 169.763 42.5037 163.801 36.0997 162.096L23.5585 158.757C13.7458 156.145 9.89138 144.282 16.2944 136.401L24.4779 126.328C28.6567 121.184 28.6567 113.816 24.4779 108.672L16.2944 98.5993C9.89137 90.718 13.7458 78.8552 23.5585 76.2427L36.0997 72.9038C42.5037 71.1988 46.8349 65.2373 46.4775 58.62L45.7776 45.6608C45.2299 35.5211 55.321 28.1894 64.7953 31.8436L76.9039 36.5139C83.0869 38.8987 90.0951 36.6217 93.6955 31.058L100.746 20.1624Z" fill="#212427"/>
<path d="M89.0057 7.97734C93.9316 0.365625 105.068 0.365625 109.994 7.97734L117.045 18.873C121.031 25.0327 128.79 27.5538 135.636 24.9134L147.745 20.2432C156.204 16.9805 165.214 23.5266 164.725 32.5799L164.025 45.5391C163.629 52.8654 168.424 59.4656 175.514 61.3533L188.056 64.6922C196.817 67.0248 200.258 77.6166 194.541 84.6535L186.358 94.7262C181.731 100.421 181.731 108.579 186.358 114.274L194.541 124.346C200.258 131.383 196.817 141.975 188.056 144.308L175.514 147.647C168.424 149.534 163.629 156.134 164.025 163.461L164.725 176.42C165.214 185.473 156.204 192.019 147.745 188.757L135.636 184.086C128.79 181.446 121.031 183.967 117.045 190.127L109.994 201.023C105.068 208.634 93.9316 208.634 89.0057 201.023L81.9548 190.127C77.9686 183.967 70.2096 181.446 63.3641 184.086L51.2555 188.757C42.7963 192.019 33.7864 185.473 34.2754 176.42L34.9753 163.461C35.3711 156.134 30.5757 149.534 23.4856 147.647L10.9445 144.308C2.18311 141.975 -1.25837 131.383 4.45864 124.346L12.6421 114.274C17.2686 108.579 17.2686 100.421 12.6421 94.7262L4.45864 84.6535C-1.25838 77.6166 2.18311 67.0248 10.9444 64.6922L23.4856 61.3533C30.5757 59.4656 35.3711 52.8654 34.9753 45.5391L34.2754 32.5799C33.7864 23.5266 42.7963 16.9805 51.2555 20.2432L63.3641 24.9134C70.2096 27.5538 77.9686 25.0327 81.9548 18.873L89.0057 7.97734Z" fill="#549BF2" stroke="#212427" stroke-width="3"/>
<path d="M53.9336 105L46.4336 72.8H56.9336L59.9836 87.5001L62.6836 77.9501V72.8H71.4336L75.6836 87.5501L78.9836 72.8H89.4836L82.0336 105H72.4836L68.1336 90.35L63.4336 105H53.9336Z" fill="#1E1E1E"/>
<path d="M94.002 105V72.8H119.052V80.7501H104.752V84.85H117.202V93.0001H104.752V97.0501H119.052V105H94.002Z" fill="#1E1E1E"/>
<path d="M123.285 105V72.8H141.685C144.952 72.8 147.468 73.5834 149.235 75.1501C151.002 76.7167 151.885 78.9334 151.885 81.8001C151.885 83.4334 151.585 84.8167 150.985 85.9501C150.418 87.0834 149.652 87.9834 148.685 88.6501C150.018 89.2167 151.068 90.0001 151.835 91.0001C152.602 91.9667 152.985 93.4167 152.985 95.3501C152.985 98.3834 152.018 100.75 150.085 102.45C148.152 104.15 145.452 105 141.985 105H123.285ZM133.485 85.4001H138.785C140.718 85.4001 141.685 84.5334 141.685 82.8C141.685 81.9667 141.435 81.3334 140.935 80.9001C140.468 80.4334 139.702 80.2001 138.635 80.2001H133.485V85.4001ZM133.485 97.6501H138.985C141.018 97.6501 142.035 96.7167 142.035 94.8501C142.035 93.1167 140.985 92.25 138.885 92.25H133.485V97.6501Z" fill="#1E1E1E"/>
<path d="M53.9766 143V110.8H68.8266C72.1932 110.8 75.0766 111.35 77.4766 112.45C79.8766 113.517 81.7266 115.25 83.0266 117.65C84.3266 120.017 84.9766 123.167 84.9766 127.1C84.9766 132.667 83.5599 136.717 80.7266 139.25C77.8932 141.75 73.9266 143 68.8266 143H53.9766ZM64.7266 134.8H67.5266C68.8932 134.8 70.0599 134.6 71.0266 134.2C71.9932 133.8 72.7266 133.05 73.2266 131.95C73.7599 130.85 74.0266 129.233 74.0266 127.1C74.0266 124.967 73.7932 123.35 73.3266 122.25C72.8599 121.15 72.1432 120.4 71.1766 120C70.2099 119.567 68.9932 119.35 67.5266 119.35H64.7266V134.8Z" fill="#1E1E1E"/>
<path d="M89.4609 143V110.8H114.511V118.75H100.211V122.85H112.661V131H100.211V135.05H114.511V143H89.4609Z" fill="#1E1E1E"/>
<path d="M129.362 143L117.012 110.8H128.212L134.962 130.4L141.762 110.8H153.012L140.612 143H129.362Z" fill="#1E1E1E"/>
</svg>
